<svg width="142pt" height="252pt"
 viewBox="0.00 0.00 142.00 252.00" xmlns="http://www.w3.org/2000/svg" xmlns:xlink="http://www.w3.org/1999/xlink">
<g id="graph0" class="graph" transform="scale(0.253787 0.253787) rotate(0) translate(4 988.96)">
<polygon fill="#1f1f1f" stroke="none" points="-4,4 -4,-988.96 556.96,-988.96 556.96,4 -4,4"/>
<!-- cb&#45;square&#45;0_4 -->
<g id="node1" class="node">
<title>cb&#45;square&#45;0_4</title>
<polygon fill="#faba8c" stroke="#faba8c" points="408.96,-120.96 338.4,-120.96 338.4,-50.4 408.96,-50.4 408.96,-120.96"/>
</g>
<!-- cb&#45;square&#45;1_4 -->
<g id="node9" class="node">
<title>cb&#45;square&#45;1_4</title>
<polygon fill="#faba8c" stroke="#faba8c" points="408.96,-192.96 338.4,-192.96 338.4,-122.4 408.96,-122.4 408.96,-192.96"/>
</g>
<!-- cb&#45;square&#45;0_4&#45;&#45;cb&#45;square&#45;1_4 -->
<!-- cb&#45;square&#45;0_5 -->
<g id="node48" class="node">
<title>cb&#45;square&#45;0_5</title>
<polygon fill="#a71c00" stroke="#a71c00" points="480.96,-120.96 410.4,-120.96 410.4,-50.4 480.96,-50.4 480.96,-120.96"/>
</g>
<!-- cb&#45;square&#45;0_4&#45;&#45;cb&#45;square&#45;0_5 -->
<!-- cb&#45;square&#45;5_1 -->
<g id="node2" class="node">
<title>cb&#45;square&#45;5_1</title>
<polygon fill="#a71c00" stroke="#a71c00" points="192.96,-480.96 122.4,-480.96 122.4,-410.4 192.96,-410.4 192.96,-480.96"/>
</g>
<!-- cb&#45;square&#45;6_1 -->
<g id="node39" class="node">
<title>cb&#45;square&#45;6_1</title>
<polygon fill="#a71c00" stroke="#a71c00" points="192.96,-552.96 122.4,-552.96 122.4,-482.4 192.96,-482.4 192.96,-552.96"/>
</g>
<!-- cb&#45;square&#45;5_1&#45;&#45;cb&#45;square&#45;6_1 -->
<!-- cb&#45;square&#45;5_2 -->
<g id="node47" class="node">
<title>cb&#45;square&#45;5_2</title>
<polygon fill="#a71c00" stroke="#a71c00" points="264.96,-480.96 194.4,-480.96 194.4,-410.4 264.96,-410.4 264.96,-480.96"/>
</g>
<!-- cb&#45;square&#45;5_1&#45;&#45;cb&#45;square&#45;5_2 -->
<!-- cb&#45;square&#45;10_5 -->
<g id="node3" class="node">
<title>cb&#45;square&#45;10_5</title>
<polygon fill="#faba8c" stroke="#faba8c" points="480.96,-840.96 410.4,-840.96 410.4,-770.4 480.96,-770.4 480.96,-840.96"/>
</g>
<!-- cb&#45;square&#45;11_5 -->
<g id="node31" class="node">
<title>cb&#45;square&#45;11_5</title>
<polygon fill="#a71c00" stroke="#a71c00" points="480.96,-912.96 410.4,-912.96 410.4,-842.4 480.96,-842.4 480.96,-912.96"/>
</g>
<!-- cb&#45;square&#45;10_5&#45;&#45;cb&#45;square&#45;11_5 -->
<!-- cb&#45;square&#45;10_6 -->
<g id="node60" class="node">
<title>cb&#45;square&#45;10_6</title>
<polygon fill="#a71c00" stroke="#a71c00" points="552.96,-840.96 482.4,-840.96 482.4,-770.4 552.96,-770.4 552.96,-840.96"/>
</g>
<!-- cb&#45;square&#45;10_5&#45;&#45;cb&#45;square&#45;10_6 -->
<!-- cb&#45;square&#45;9_5 -->
<g id="node82" class="node">
<title>cb&#45;square&#45;9_5</title>
<polygon fill="#a71c00" stroke="#a71c00" points="480.96,-768.96 410.4,-768.96 410.4,-698.4 480.96,-698.4 480.96,-768.96"/>
</g>
<!-- cb&#45;square&#45;10_5&#45;&#45;cb&#45;square&#45;9_5 -->
<!-- cb&#45;square&#45;12_6 -->
<g id="node4" class="node">
<title>cb&#45;square&#45;12_6</title>
<polygon fill="#a71c00" stroke="#a71c00" points="552.96,-984.96 482.4,-984.96 482.4,-914.4 552.96,-914.4 552.96,-984.96"/>
</g>
<!-- cb&#45;square&#45;2_4 -->
<g id="node5" class="node">
<title>cb&#45;square&#45;2_4</title>
<polygon fill="#a71c00" stroke="#a71c00" points="408.96,-264.96 338.4,-264.96 338.4,-194.4 408.96,-194.4 408.96,-264.96"/>
</g>
<!-- cb&#45;square&#45;3_4 -->
<g id="node15" class="node">
<title>cb&#45;square&#45;3_4</title>
<polygon fill="#a71c00" stroke="#a71c00" points="408.96,-336.96 338.4,-336.96 338.4,-266.4 408.96,-266.4 408.96,-336.96"/>
</g>
<!-- cb&#45;square&#45;2_4&#45;&#45;cb&#45;square&#45;3_4 -->
<!-- cb&#45;square&#45;2_5 -->
<g id="node78" class="node">
<title>cb&#45;square&#45;2_5</title>
<polygon fill="#faba8c" stroke="#faba8c" points="480.96,-264.96 410.4,-264.96 410.4,-194.4 480.96,-194.4 480.96,-264.96"/>
</g>
<!-- cb&#45;square&#45;2_4&#45;&#45;cb&#45;square&#45;2_5 -->
<!-- cb&#45;square&#45;8_1 -->
<g id="node6" class="node">
<title>cb&#45;square&#45;8_1</title>
<polygon fill="#a71c00" stroke="#a71c00" points="192.96,-696.96 122.4,-696.96 122.4,-626.4 192.96,-626.4 192.96,-696.96"/>
</g>
<!-- cb&#45;square&#45;8_2 -->
<g id="node21" class="node">
<title>cb&#45;square&#45;8_2</title>
<polygon fill="#a71c00" stroke="#a71c00" points="264.96,-696.96 194.4,-696.96 194.4,-626.4 264.96,-626.4 264.96,-696.96"/>
</g>
<!-- cb&#45;square&#45;8_1&#45;&#45;cb&#45;square&#45;8_2 -->
<!-- cb&#45;square&#45;9_1 -->
<g id="node40" class="node">
<title>cb&#45;square&#45;9_1</title>
<polygon fill="#a71c00" stroke="#a71c00" points="192.96,-768.96 122.4,-768.96 122.4,-698.4 192.96,-698.4 192.96,-768.96"/>
</g>
<!-- cb&#45;square&#45;8_1&#45;&#45;cb&#45;square&#45;9_1 -->
<!-- cb&#45;square&#45;9_4 -->
<g id="node7" class="node">
<title>cb&#45;square&#45;9_4</title>
<polygon fill="#faba8c" stroke="#faba8c" points="408.96,-768.96 338.4,-768.96 338.4,-698.4 408.96,-698.4 408.96,-768.96"/>
</g>
<!-- cb&#45;square&#45;9_4&#45;&#45;cb&#45;square&#45;9_5 -->
<!-- cb&#45;square&#45;11_2 -->
<g id="node8" class="node">
<title>cb&#45;square&#45;11_2</title>
<polygon fill="#a71c00" stroke="#a71c00" points="264.96,-912.96 194.4,-912.96 194.4,-842.4 264.96,-842.4 264.96,-912.96"/>
</g>
<!-- cb&#45;square&#45;12_2 -->
<g id="node24" class="node">
<title>cb&#45;square&#45;12_2</title>
<polygon fill="#a71c00" stroke="#a71c00" points="264.96,-984.96 194.4,-984.96 194.4,-914.4 264.96,-914.4 264.96,-984.96"/>
</g>
<!-- cb&#45;square&#45;11_2&#45;&#45;cb&#45;square&#45;12_2 -->
<!-- cb&#45;square&#45;11_3 -->
<g id="node59" class="node">
<title>cb&#45;square&#45;11_3</title>
<polygon fill="#a71c00" stroke="#a71c00" points="336.96,-912.96 266.4,-912.96 266.4,-842.4 336.96,-842.4 336.96,-912.96"/>
</g>
<!-- cb&#45;square&#45;11_2&#45;&#45;cb&#45;square&#45;11_3 -->
<!-- cb&#45;square&#45;1_4&#45;&#45;cb&#45;square&#45;2_4 -->
<!-- cb&#45;square&#45;1_5 -->
<g id="node42" class="node">
<title>cb&#45;square&#45;1_5</title>
<polygon fill="#a71c00" stroke="#a71c00" points="480.96,-192.96 410.4,-192.96 410.4,-122.4 480.96,-122.4 480.96,-192.96"/>
</g>
<!-- cb&#45;square&#45;1_4&#45;&#45;cb&#45;square&#45;1_5 -->
<!-- cb&#45;square&#45;6_0 -->
<g id="node10" class="node">
<title>cb&#45;square&#45;6_0</title>
<polygon fill="#faba8c" stroke="#faba8c" points="120.96,-552.96 50.4,-552.96 50.4,-482.4 120.96,-482.4 120.96,-552.96"/>
</g>
<!-- cb&#45;square&#45;7_0 -->
<g id="node13" class="node">
<title>cb&#45;square&#45;7_0</title>
<polygon fill="#faba8c" stroke="#faba8c" points="120.96,-624.96 50.4,-624.96 50.4,-554.4 120.96,-554.4 120.96,-624.96"/>
</g>
<!-- cb&#45;square&#45;6_0&#45;&#45;cb&#45;square&#45;7_0 -->
<!-- cb&#45;square&#45;6_0&#45;&#45;cb&#45;square&#45;6_1 -->
<!-- cb&#45;square&#45;7_5 -->
<g id="node11" class="node">
<title>cb&#45;square&#45;7_5</title>
<polygon fill="#a71c00" stroke="#a71c00" points="480.96,-624.96 410.4,-624.96 410.4,-554.4 480.96,-554.4 480.96,-624.96"/>
</g>
<!-- cb&#45;square&#45;7_6 -->
<g id="node69" class="node">
<title>cb&#45;square&#45;7_6</title>
<polygon fill="#a71c00" stroke="#a71c00" points="552.96,-624.96 482.4,-624.96 482.4,-554.4 552.96,-554.4 552.96,-624.96"/>
</g>
<!-- cb&#45;square&#45;7_5&#45;&#45;cb&#45;square&#45;7_6 -->
<!-- cb&#45;square&#45;8_5 -->
<g id="node90" class="node">
<title>cb&#45;square&#45;8_5</title>
<polygon fill="#a71c00" stroke="#a71c00" points="480.96,-696.96 410.4,-696.96 410.4,-626.4 480.96,-626.4 480.96,-696.96"/>
</g>
<!-- cb&#45;square&#45;7_5&#45;&#45;cb&#45;square&#45;8_5 -->
<!-- cb&#45;square&#45;12_3 -->
<g id="node12" class="node">
<title>cb&#45;square&#45;12_3</title>
<polygon fill="#a71c00" stroke="#a71c00" points="336.96,-984.96 266.4,-984.96 266.4,-914.4 336.96,-914.4 336.96,-984.96"/>
</g>
<!-- cb&#45;square&#45;12_4 -->
<g id="node83" class="node">
<title>cb&#45;square&#45;12_4</title>
<polygon fill="#a71c00" stroke="#a71c00" points="408.96,-984.96 338.4,-984.96 338.4,-914.4 408.96,-914.4 408.96,-984.96"/>
</g>
<!-- cb&#45;square&#45;12_3&#45;&#45;cb&#45;square&#45;12_4 -->
<!-- cb&#45;square&#45;7_1 -->
<g id="node54" class="node">
<title>cb&#45;square&#45;7_1</title>
<polygon fill="#a71c00" stroke="#a71c00" points="192.96,-624.96 122.4,-624.96 122.4,-554.4 192.96,-554.4 192.96,-624.96"/>
</g>
<!-- cb&#45;square&#45;7_0&#45;&#45;cb&#45;square&#45;7_1 -->
<!-- cb&#45;square&#45;8_0 -->
<g id="node89" class="node">
<title>cb&#45;square&#45;8_0</title>
<polygon fill="#faba8c" stroke="#faba8c" points="120.96,-696.96 50.4,-696.96 50.4,-626.4 120.96,-626.4 120.96,-696.96"/>
</g>
<!-- cb&#45;square&#45;7_0&#45;&#45;cb&#45;square&#45;8_0 -->
<!-- cb&#45;square&#45;7_4 -->
<g id="node14" class="node">
<title>cb&#45;square&#45;7_4</title>
<polygon fill="#a71c00" stroke="#a71c00" points="408.96,-624.96 338.4,-624.96 338.4,-554.4 408.96,-554.4 408.96,-624.96"/>
</g>
<!-- cb&#45;square&#45;7_4&#45;&#45;cb&#45;square&#45;7_5 -->
<!-- cb&#45;square&#45;8_4 -->
<g id="node33" class="node">
<title>cb&#45;square&#45;8_4</title>
<polygon fill="#faba8c" stroke="#faba8c" points="408.96,-696.96 338.4,-696.96 338.4,-626.4 408.96,-626.4 408.96,-696.96"/>
</g>
<!-- cb&#45;square&#45;7_4&#45;&#45;cb&#45;square&#45;8_4 -->
<!-- cb&#45;square&#45;3_5 -->
<g id="node46" class="node">
<title>cb&#45;square&#45;3_5</title>
<polygon fill="#a71c00" stroke="#a71c00" points="480.96,-336.96 410.4,-336.96 410.4,-266.4 480.96,-266.4 480.96,-336.96"/>
</g>
<!-- cb&#45;square&#45;3_4&#45;&#45;cb&#45;square&#45;3_5 -->
<!-- cb&#45;square&#45;4_4 -->
<g id="node86" class="node">
<title>cb&#45;square&#45;4_4</title>
<polygon fill="#a71c00" stroke="#a71c00" points="408.96,-408.96 338.4,-408.96 338.4,-338.4 408.96,-338.4 408.96,-408.96"/>
</g>
<!-- cb&#45;square&#45;3_4&#45;&#45;cb&#45;square&#45;4_4 -->
<!-- cb&#45;square&#45;6_6 -->
<g id="node16" class="node">
<title>cb&#45;square&#45;6_6</title>
<polygon fill="#faba8c" stroke="#faba8c" points="552.96,-552.96 482.4,-552.96 482.4,-482.4 552.96,-482.4 552.96,-552.96"/>
</g>
<!-- cb&#45;square&#45;6_6&#45;&#45;cb&#45;square&#45;7_6 -->
<!-- cb&#45;square&#45;5_3 -->
<g id="node17" class="node">
<title>cb&#45;square&#45;5_3</title>
<polygon fill="#faba8c" stroke="#faba8c" points="336.96,-480.96 266.4,-480.96 266.4,-410.4 336.96,-410.4 336.96,-480.96"/>
</g>
<!-- cb&#45;square&#45;5_4 -->
<g id="node35" class="node">
<title>cb&#45;square&#45;5_4</title>
<polygon fill="#a71c00" stroke="#a71c00" points="408.96,-480.96 338.4,-480.96 338.4,-410.4 408.96,-410.4 408.96,-480.96"/>
</g>
<!-- cb&#45;square&#45;5_3&#45;&#45;cb&#45;square&#45;5_4 -->
<!-- cb&#45;square&#45;6_3 -->
<g id="node53" class="node">
<title>cb&#45;square&#45;6_3</title>
<polygon fill="#faba8c" stroke="#faba8c" points="336.96,-552.96 266.4,-552.96 266.4,-482.4 336.96,-482.4 336.96,-552.96"/>
</g>
<!-- cb&#45;square&#45;5_3&#45;&#45;cb&#45;square&#45;6_3 -->
<!-- cb&#45;square&#45;10_2 -->
<g id="node18" class="node">
<title>cb&#45;square&#45;10_2</title>
<polygon fill="#a71c00" stroke="#a71c00" points="264.96,-840.96 194.4,-840.96 194.4,-770.4 264.96,-770.4 264.96,-840.96"/>
</g>
<!-- cb&#45;square&#45;10_2&#45;&#45;cb&#45;square&#45;11_2 -->
<!-- cb&#45;square&#45;10_3 -->
<g id="node38" class="node">
<title>cb&#45;square&#45;10_3</title>
<polygon fill="#a71c00" stroke="#a71c00" points="336.96,-840.96 266.4,-840.96 266.4,-770.4 336.96,-770.4 336.96,-840.96"/>
</g>
<!-- cb&#45;square&#45;10_2&#45;&#45;cb&#45;square&#45;10_3 -->
<!-- cb&#45;square&#45;9_2 -->
<g id="node76" class="node">
<title>cb&#45;square&#45;9_2</title>
<polygon fill="#a71c00" stroke="#a71c00" points="264.96,-768.96 194.4,-768.96 194.4,-698.4 264.96,-698.4 264.96,-768.96"/>
</g>
<!-- cb&#45;square&#45;10_2&#45;&#45;cb&#45;square&#45;9_2 -->
<!-- cb&#45;square&#45;2_3 -->
<g id="node19" class="node">
<title>cb&#45;square&#45;2_3</title>
<polygon fill="#a71c00" stroke="#a71c00" points="336.96,-264.96 266.4,-264.96 266.4,-194.4 336.96,-194.4 336.96,-264.96"/>
</g>
<!-- cb&#45;square&#45;2_3&#45;&#45;cb&#45;square&#45;2_4 -->
<!-- cb&#45;square&#45;3_3 -->
<g id="node81" class="node">
<title>cb&#45;square&#45;3_3</title>
<polygon fill="#a71c00" stroke="#a71c00" points="336.96,-336.96 266.4,-336.96 266.4,-266.4 336.96,-266.4 336.96,-336.96"/>
</g>
<!-- cb&#45;square&#45;2_3&#45;&#45;cb&#45;square&#45;3_3 -->
<!-- cb&#45;square&#45;6_2 -->
<g id="node20" class="node">
<title>cb&#45;square&#45;6_2</title>
<polygon fill="#a71c00" stroke="#a71c00" points="264.96,-552.96 194.4,-552.96 194.4,-482.4 264.96,-482.4 264.96,-552.96"/>
</g>
<!-- cb&#45;square&#45;6_2&#45;&#45;cb&#45;square&#45;6_3 -->
<!-- cb&#45;square&#45;7_2 -->
<g id="node67" class="node">
<title>cb&#45;square&#45;7_2</title>
<polygon fill="#a71c00" stroke="#a71c00" points="264.96,-624.96 194.4,-624.96 194.4,-554.4 264.96,-554.4 264.96,-624.96"/>
</g>
<!-- cb&#45;square&#45;6_2&#45;&#45;cb&#45;square&#45;7_2 -->
<!-- cb&#45;square&#45;8_3 -->
<g id="node70" class="node">
<title>cb&#45;square&#45;8_3</title>
<polygon fill="#a71c00" stroke="#a71c00" points="336.96,-696.96 266.4,-696.96 266.4,-626.4 336.96,-626.4 336.96,-696.96"/>
</g>
<!-- cb&#45;square&#45;8_2&#45;&#45;cb&#45;square&#45;8_3 -->
<!-- cb&#45;square&#45;8_2&#45;&#45;cb&#45;square&#45;9_2 -->
<!-- cb&#45;square&#45;1_1 -->
<g id="node22" class="node">
<title>cb&#45;square&#45;1_1</title>
<polygon fill="#a71c00" stroke="#a71c00" points="192.96,-192.96 122.4,-192.96 122.4,-122.4 192.96,-122.4 192.96,-192.96"/>
</g>
<!-- cb&#45;square&#45;1_2 -->
<g id="node36" class="node">
<title>cb&#45;square&#45;1_2</title>
<polygon fill="#faba8c" stroke="#faba8c" points="264.96,-192.96 194.4,-192.96 194.4,-122.4 264.96,-122.4 264.96,-192.96"/>
</g>
<!-- cb&#45;square&#45;1_1&#45;&#45;cb&#45;square&#45;1_2 -->
<!-- cb&#45;square&#45;2_1 -->
<g id="node91" class="node">
<title>cb&#45;square&#45;2_1</title>
<polygon fill="#a71c00" stroke="#a71c00" points="192.96,-264.96 122.4,-264.96 122.4,-194.4 192.96,-194.4 192.96,-264.96"/>
</g>
<!-- cb&#45;square&#45;1_1&#45;&#45;cb&#45;square&#45;2_1 -->
<!-- cb&#45;square&#45;4_1 -->
<g id="node23" class="node">
<title>cb&#45;square&#45;4_1</title>
<polygon fill="#a71c00" stroke="#a71c00" points="192.96,-408.96 122.4,-408.96 122.4,-338.4 192.96,-338.4 192.96,-408.96"/>
</g>
<!-- cb&#45;square&#45;4_1&#45;&#45;cb&#45;square&#45;5_1 -->
<!-- cb&#45;square&#45;4_2 -->
<g id="node32" class="node">
<title>cb&#45;square&#45;4_2</title>
<polygon fill="#faba8c" stroke="#faba8c" points="264.96,-408.96 194.4,-408.96 194.4,-338.4 264.96,-338.4 264.96,-408.96"/>
</g>
<!-- cb&#45;square&#45;4_1&#45;&#45;cb&#45;square&#45;4_2 -->
<!-- cb&#45;square&#45;12_2&#45;&#45;cb&#45;square&#45;12_3 -->
<!-- cb&#45;square&#45;12_5 -->
<g id="node25" class="node">
<title>cb&#45;square&#45;12_5</title>
<polygon fill="#a71c00" stroke="#a71c00" points="480.96,-984.96 410.4,-984.96 410.4,-914.4 480.96,-914.4 480.96,-984.96"/>
</g>
<!-- cb&#45;square&#45;12_5&#45;&#45;cb&#45;square&#45;12_6 -->
<!-- cb&#45;square&#45;5_6 -->
<g id="node26" class="node">
<title>cb&#45;square&#45;5_6</title>
<polygon fill="#a71c00" stroke="#a71c00" points="552.96,-480.96 482.4,-480.96 482.4,-410.4 552.96,-410.4 552.96,-480.96"/>
</g>
<!-- cb&#45;square&#45;5_6&#45;&#45;cb&#45;square&#45;6_6 -->
<!-- cb&#45;square&#45;0_1 -->
<g id="node27" class="node">
<title>cb&#45;square&#45;0_1</title>
<polygon fill="#a71c00" stroke="#a71c00" points="192.96,-120.96 122.4,-120.96 122.4,-50.4 192.96,-50.4 192.96,-120.96"/>
</g>
<!-- cb&#45;square&#45;0_1&#45;&#45;cb&#45;square&#45;1_1 -->
<!-- cb&#45;square&#45;0_2 -->
<g id="node84" class="node">
<title>cb&#45;square&#45;0_2</title>
<polygon fill="#faba8c" stroke="#faba8c" points="264.96,-120.96 194.4,-120.96 194.4,-50.4 264.96,-50.4 264.96,-120.96"/>
</g>
<!-- cb&#45;square&#45;0_1&#45;&#45;cb&#45;square&#45;0_2 -->
<!-- cb&#45;square&#45;8_6 -->
<g id="node28" class="node">
<title>cb&#45;square&#45;8_6</title>
<polygon fill="#faba8c" stroke="#faba8c" points="552.96,-696.96 482.4,-696.96 482.4,-626.4 552.96,-626.4 552.96,-696.96"/>
</g>
<!-- cb&#45;square&#45;9_6 -->
<g id="node62" class="node">
<title>cb&#45;square&#45;9_6</title>
<polygon fill="#a71c00" stroke="#a71c00" points="552.96,-768.96 482.4,-768.96 482.4,-698.4 552.96,-698.4 552.96,-768.96"/>
</g>
<!-- cb&#45;square&#45;8_6&#45;&#45;cb&#45;square&#45;9_6 -->
<!-- cb&#45;square&#45;1_6 -->
<g id="node29" class="node">
<title>cb&#45;square&#45;1_6</title>
<polygon fill="#a71c00" stroke="#a71c00" points="552.96,-192.96 482.4,-192.96 482.4,-122.4 552.96,-122.4 552.96,-192.96"/>
</g>
<!-- cb&#45;square&#45;2_6 -->
<g id="node43" class="node">
<title>cb&#45;square&#45;2_6</title>
<polygon fill="#a71c00" stroke="#a71c00" points="552.96,-264.96 482.4,-264.96 482.4,-194.4 552.96,-194.4 552.96,-264.96"/>
</g>
<!-- cb&#45;square&#45;1_6&#45;&#45;cb&#45;square&#45;2_6 -->
<!-- cb&#45;square&#45;3_6 -->
<g id="node30" class="node">
<title>cb&#45;square&#45;3_6</title>
<polygon fill="#faba8c" stroke="#faba8c" points="552.96,-336.96 482.4,-336.96 482.4,-266.4 552.96,-266.4 552.96,-336.96"/>
</g>
<!-- cb&#45;square&#45;4_6 -->
<g id="node45" class="node">
<title>cb&#45;square&#45;4_6</title>
<polygon fill="#a71c00" stroke="#a71c00" points="552.96,-408.96 482.4,-408.96 482.4,-338.4 552.96,-338.4 552.96,-408.96"/>
</g>
<!-- cb&#45;square&#45;3_6&#45;&#45;cb&#45;square&#45;4_6 -->
<!-- cb&#45;square&#45;11_5&#45;&#45;cb&#45;square&#45;12_5 -->
<!-- cb&#45;square&#45;11_6 -->
<g id="node75" class="node">
<title>cb&#45;square&#45;11_6</title>
<polygon fill="#faba8c" stroke="#faba8c" points="552.96,-912.96 482.4,-912.96 482.4,-842.4 552.96,-842.4 552.96,-912.96"/>
</g>
<!-- cb&#45;square&#45;11_5&#45;&#45;cb&#45;square&#45;11_6 -->
<!-- cb&#45;square&#45;4_2&#45;&#45;cb&#45;square&#45;5_2 -->
<!-- cb&#45;square&#45;4_3 -->
<g id="node50" class="node">
<title>cb&#45;square&#45;4_3</title>
<polygon fill="#a71c00" stroke="#a71c00" points="336.96,-408.96 266.4,-408.96 266.4,-338.4 336.96,-338.4 336.96,-408.96"/>
</g>
<!-- cb&#45;square&#45;4_2&#45;&#45;cb&#45;square&#45;4_3 -->
<!-- cb&#45;square&#45;8_4&#45;&#45;cb&#45;square&#45;9_4 -->
<!-- cb&#45;square&#45;8_4&#45;&#45;cb&#45;square&#45;8_5 -->
<!-- cb&#45;square&#45;4_0 -->
<g id="node34" class="node">
<title>cb&#45;square&#45;4_0</title>
<polygon fill="#faba8c" stroke="#faba8c" points="120.96,-408.96 50.4,-408.96 50.4,-338.4 120.96,-338.4 120.96,-408.96"/>
</g>
<!-- cb&#45;square&#45;4_0&#45;&#45;cb&#45;square&#45;4_1 -->
<!-- cb&#45;square&#45;5_0 -->
<g id="node77" class="node">
<title>cb&#45;square&#45;5_0</title>
<polygon fill="#faba8c" stroke="#faba8c" points="120.96,-480.96 50.4,-480.96 50.4,-410.4 120.96,-410.4 120.96,-480.96"/>
</g>
<!-- cb&#45;square&#45;4_0&#45;&#45;cb&#45;square&#45;5_0 -->
<!-- cb&#45;square&#45;6_4 -->
<g id="node44" class="node">
<title>cb&#45;square&#45;6_4</title>
<polygon fill="#a71c00" stroke="#a71c00" points="408.96,-552.96 338.4,-552.96 338.4,-482.4 408.96,-482.4 408.96,-552.96"/>
</g>
<!-- cb&#45;square&#45;5_4&#45;&#45;cb&#45;square&#45;6_4 -->
<!-- cb&#45;square&#45;5_5 -->
<g id="node51" class="node">
<title>cb&#45;square&#45;5_5</title>
<polygon fill="#faba8c" stroke="#faba8c" points="480.96,-480.96 410.4,-480.96 410.4,-410.4 480.96,-410.4 480.96,-480.96"/>
</g>
<!-- cb&#45;square&#45;5_4&#45;&#45;cb&#45;square&#45;5_5 -->
<!-- cb&#45;square&#45;1_3 -->
<g id="node65" class="node">
<title>cb&#45;square&#45;1_3</title>
<polygon fill="#a71c00" stroke="#a71c00" points="336.96,-192.96 266.4,-192.96 266.4,-122.4 336.96,-122.4 336.96,-192.96"/>
</g>
<!-- cb&#45;square&#45;1_2&#45;&#45;cb&#45;square&#45;1_3 -->
<!-- cb&#45;square&#45;2_2 -->
<g id="node72" class="node">
<title>cb&#45;square&#45;2_2</title>
<polygon fill="#faba8c" stroke="#faba8c" points="264.96,-264.96 194.4,-264.96 194.4,-194.4 264.96,-194.4 264.96,-264.96"/>
</g>
<!-- cb&#45;square&#45;1_2&#45;&#45;cb&#45;square&#45;2_2 -->
<!-- cb&#45;square&#45;12_1 -->
<g id="node37" class="node">
<title>cb&#45;square&#45;12_1</title>
<polygon fill="#a71c00" stroke="#a71c00" points="192.96,-984.96 122.4,-984.96 122.4,-914.4 192.96,-914.4 192.96,-984.96"/>
</g>
<!-- cb&#45;square&#45;12_1&#45;&#45;cb&#45;square&#45;12_2 -->
<!-- cb&#45;square&#45;10_3&#45;&#45;cb&#45;square&#45;11_3 -->
<!-- cb&#45;square&#45;10_4 -->
<g id="node64" class="node">
<title>cb&#45;square&#45;10_4</title>
<polygon fill="#a71c00" stroke="#a71c00" points="408.96,-840.96 338.4,-840.96 338.4,-770.4 408.96,-770.4 408.96,-840.96"/>
</g>
<!-- cb&#45;square&#45;10_3&#45;&#45;cb&#45;square&#45;10_4 -->
<!-- cb&#45;square&#45;9_3 -->
<g id="node68" class="node">
<title>cb&#45;square&#45;9_3</title>
<polygon fill="#a71c00" stroke="#a71c00" points="336.96,-768.96 266.4,-768.96 266.4,-698.4 336.96,-698.4 336.96,-768.96"/>
</g>
<!-- cb&#45;square&#45;10_3&#45;&#45;cb&#45;square&#45;9_3 -->
<!-- cb&#45;square&#45;6_1&#45;&#45;cb&#45;square&#45;6_2 -->
<!-- cb&#45;square&#45;6_1&#45;&#45;cb&#45;square&#45;7_1 -->
<!-- cb&#45;square&#45;9_1&#45;&#45;cb&#45;square&#45;9_2 -->
<!-- cb&#45;square&#45;7_3 -->
<g id="node41" class="node">
<title>cb&#45;square&#45;7_3</title>
<polygon fill="#faba8c" stroke="#faba8c" points="336.96,-624.96 266.4,-624.96 266.4,-554.4 336.96,-554.4 336.96,-624.96"/>
</g>
<!-- cb&#45;square&#45;7_3&#45;&#45;cb&#45;square&#45;7_4 -->
<!-- cb&#45;square&#45;7_3&#45;&#45;cb&#45;square&#45;8_3 -->
<!-- cb&#45;square&#45;1_5&#45;&#45;cb&#45;square&#45;1_6 -->
<!-- cb&#45;square&#45;1_5&#45;&#45;cb&#45;square&#45;2_5 -->
<!-- cb&#45;square&#45;2_6&#45;&#45;cb&#45;square&#45;3_6 -->
<!-- cb&#45;square&#45;6_4&#45;&#45;cb&#45;square&#45;7_4 -->
<!-- cb&#45;square&#45;6_5 -->
<g id="node61" class="node">
<title>cb&#45;square&#45;6_5</title>
<polygon fill="#a71c00" stroke="#a71c00" points="480.96,-552.96 410.4,-552.96 410.4,-482.4 480.96,-482.4 480.96,-552.96"/>
</g>
<!-- cb&#45;square&#45;6_4&#45;&#45;cb&#45;square&#45;6_5 -->
<!-- cb&#45;square&#45;4_6&#45;&#45;cb&#45;square&#45;5_6 -->
<!-- cb&#45;square&#45;3_5&#45;&#45;cb&#45;square&#45;3_6 -->
<!-- cb&#45;square&#45;4_5 -->
<g id="node74" class="node">
<title>cb&#45;square&#45;4_5</title>
<polygon fill="#a71c00" stroke="#a71c00" points="480.96,-408.96 410.4,-408.96 410.4,-338.4 480.96,-338.4 480.96,-408.96"/>
</g>
<!-- cb&#45;square&#45;3_5&#45;&#45;cb&#45;square&#45;4_5 -->
<!-- cb&#45;square&#45;5_2&#45;&#45;cb&#45;square&#45;5_3 -->
<!-- cb&#45;square&#45;5_2&#45;&#45;cb&#45;square&#45;6_2 -->
<!-- cb&#45;square&#45;0_5&#45;&#45;cb&#45;square&#45;1_5 -->
<!-- cb&#45;square&#45;0_6 -->
<g id="node87" class="node">
<title>cb&#45;square&#45;0_6</title>
<polygon fill="#faba8c" stroke="#faba8c" points="552.96,-120.96 482.4,-120.96 482.4,-50.4 552.96,-50.4 552.96,-120.96"/>
</g>
<!-- cb&#45;square&#45;0_5&#45;&#45;cb&#45;square&#45;0_6 -->
<!-- cb&#45;square&#45;12_0 -->
<g id="node49" class="node">
<title>cb&#45;square&#45;12_0</title>
<polygon fill="#faba8c" stroke="#faba8c" points="120.96,-984.96 50.4,-984.96 50.4,-914.4 120.96,-914.4 120.96,-984.96"/>
</g>
<!-- cb&#45;square&#45;12_0&#45;&#45;cb&#45;square&#45;12_1 -->
<!-- cb&#45;square&#45;4_3&#45;&#45;cb&#45;square&#45;5_3 -->
<!-- cb&#45;square&#45;4_3&#45;&#45;cb&#45;square&#45;4_4 -->
<!-- cb&#45;square&#45;5_5&#45;&#45;cb&#45;square&#45;5_6 -->
<!-- cb&#45;square&#45;5_5&#45;&#45;cb&#45;square&#45;6_5 -->
<!-- cb&#45;square&#45;3_0 -->
<g id="node52" class="node">
<title>cb&#45;square&#45;3_0</title>
<polygon fill="#faba8c" stroke="#faba8c" points="120.96,-336.96 50.4,-336.96 50.4,-266.4 120.96,-266.4 120.96,-336.96"/>
</g>
<!-- cb&#45;square&#45;3_0&#45;&#45;cb&#45;square&#45;4_0 -->
<!-- cb&#45;square&#45;3_1 -->
<g id="node80" class="node">
<title>cb&#45;square&#45;3_1</title>
<polygon fill="#a71c00" stroke="#a71c00" points="192.96,-336.96 122.4,-336.96 122.4,-266.4 192.96,-266.4 192.96,-336.96"/>
</g>
<!-- cb&#45;square&#45;3_0&#45;&#45;cb&#45;square&#45;3_1 -->
<!-- cb&#45;square&#45;6_3&#45;&#45;cb&#45;square&#45;7_3 -->
<!-- cb&#45;square&#45;6_3&#45;&#45;cb&#45;square&#45;6_4 -->
<!-- cb&#45;square&#45;7_1&#45;&#45;cb&#45;square&#45;8_1 -->
<!-- cb&#45;square&#45;7_1&#45;&#45;cb&#45;square&#45;7_2 -->
<!-- cb&#45;square&#45;11_0 -->
<g id="node55" class="node">
<title>cb&#45;square&#45;11_0</title>
<polygon fill="#faba8c" stroke="#faba8c" points="120.96,-912.96 50.4,-912.96 50.4,-842.4 120.96,-842.4 120.96,-912.96"/>
</g>
<!-- cb&#45;square&#45;11_0&#45;&#45;cb&#45;square&#45;12_0 -->
<!-- cb&#45;square&#45;11_1 -->
<g id="node85" class="node">
<title>cb&#45;square&#45;11_1</title>
<polygon fill="#a71c00" stroke="#a71c00" points="192.96,-912.96 122.4,-912.96 122.4,-842.4 192.96,-842.4 192.96,-912.96"/>
</g>
<!-- cb&#45;square&#45;11_0&#45;&#45;cb&#45;square&#45;11_1 -->
<!-- cb&#45;square&#45;0_3 -->
<g id="node56" class="node">
<title>cb&#45;square&#45;0_3</title>
<polygon fill="#a71c00" stroke="#a71c00" points="336.96,-120.96 266.4,-120.96 266.4,-50.4 336.96,-50.4 336.96,-120.96"/>
</g>
<!-- cb&#45;square&#45;0_3&#45;&#45;cb&#45;square&#45;0_4 -->
<!-- cb&#45;square&#45;0_3&#45;&#45;cb&#45;square&#45;1_3 -->
<!-- cb&#45;square&#45;10_1 -->
<g id="node57" class="node">
<title>cb&#45;square&#45;10_1</title>
<polygon fill="#a71c00" stroke="#a71c00" points="192.96,-840.96 122.4,-840.96 122.4,-770.4 192.96,-770.4 192.96,-840.96"/>
</g>
<!-- cb&#45;square&#45;10_1&#45;&#45;cb&#45;square&#45;10_2 -->
<!-- cb&#45;square&#45;10_1&#45;&#45;cb&#45;square&#45;9_1 -->
<!-- cb&#45;square&#45;10_1&#45;&#45;cb&#45;square&#45;11_1 -->
<!-- cb&#45;square&#45;1_0 -->
<g id="node58" class="node">
<title>cb&#45;square&#45;1_0</title>
<polygon fill="#faba8c" stroke="#faba8c" points="120.96,-192.96 50.4,-192.96 50.4,-122.4 120.96,-122.4 120.96,-192.96"/>
</g>
<!-- cb&#45;square&#45;1_0&#45;&#45;cb&#45;square&#45;1_1 -->
<!-- cb&#45;square&#45;2_0 -->
<g id="node66" class="node">
<title>cb&#45;square&#45;2_0</title>
<polygon fill="#faba8c" stroke="#faba8c" points="120.96,-264.96 50.4,-264.96 50.4,-194.4 120.96,-194.4 120.96,-264.96"/>
</g>
<!-- cb&#45;square&#45;1_0&#45;&#45;cb&#45;square&#45;2_0 -->
<!-- cb&#45;square&#45;11_3&#45;&#45;cb&#45;square&#45;12_3 -->
<!-- cb&#45;square&#45;11_4 -->
<g id="node88" class="node">
<title>cb&#45;square&#45;11_4</title>
<polygon fill="#a71c00" stroke="#a71c00" points="408.96,-912.96 338.4,-912.96 338.4,-842.4 408.96,-842.4 408.96,-912.96"/>
</g>
<!-- cb&#45;square&#45;11_3&#45;&#45;cb&#45;square&#45;11_4 -->
<!-- cb&#45;square&#45;10_6&#45;&#45;cb&#45;square&#45;9_6 -->
<!-- cb&#45;square&#45;10_6&#45;&#45;cb&#45;square&#45;11_6 -->
<!-- cb&#45;square&#45;6_5&#45;&#45;cb&#45;square&#45;7_5 -->
<!-- cb&#45;square&#45;6_5&#45;&#45;cb&#45;square&#45;6_6 -->
<!-- cb&#45;square&#45;10_0 -->
<g id="node63" class="node">
<title>cb&#45;square&#45;10_0</title>
<polygon fill="#faba8c" stroke="#faba8c" points="120.96,-840.96 50.4,-840.96 50.4,-770.4 120.96,-770.4 120.96,-840.96"/>
</g>
<!-- cb&#45;square&#45;10_0&#45;&#45;cb&#45;square&#45;11_0 -->
<!-- cb&#45;square&#45;10_0&#45;&#45;cb&#45;square&#45;10_1 -->
<!-- cb&#45;square&#45;9_0 -->
<g id="node79" class="node">
<title>cb&#45;square&#45;9_0</title>
<polygon fill="#faba8c" stroke="#faba8c" points="120.96,-768.96 50.4,-768.96 50.4,-698.4 120.96,-698.4 120.96,-768.96"/>
</g>
<!-- cb&#45;square&#45;10_0&#45;&#45;cb&#45;square&#45;9_0 -->
<!-- cb&#45;square&#45;10_4&#45;&#45;cb&#45;square&#45;10_5 -->
<!-- cb&#45;square&#45;10_4&#45;&#45;cb&#45;square&#45;9_4 -->
<!-- cb&#45;square&#45;10_4&#45;&#45;cb&#45;square&#45;11_4 -->
<!-- cb&#45;square&#45;1_3&#45;&#45;cb&#45;square&#45;1_4 -->
<!-- cb&#45;square&#45;1_3&#45;&#45;cb&#45;square&#45;2_3 -->
<!-- cb&#45;square&#45;2_0&#45;&#45;cb&#45;square&#45;3_0 -->
<!-- cb&#45;square&#45;2_0&#45;&#45;cb&#45;square&#45;2_1 -->
<!-- cb&#45;square&#45;7_2&#45;&#45;cb&#45;square&#45;8_2 -->
<!-- cb&#45;square&#45;7_2&#45;&#45;cb&#45;square&#45;7_3 -->
<!-- cb&#45;square&#45;9_3&#45;&#45;cb&#45;square&#45;9_4 -->
<!-- cb&#45;square&#45;7_6&#45;&#45;cb&#45;square&#45;8_6 -->
<!-- cb&#45;square&#45;8_3&#45;&#45;cb&#45;square&#45;8_4 -->
<!-- cb&#45;square&#45;8_3&#45;&#45;cb&#45;square&#45;9_3 -->
<!-- cb&#45;square&#45;3_2 -->
<g id="node71" class="node">
<title>cb&#45;square&#45;3_2</title>
<polygon fill="#faba8c" stroke="#faba8c" points="264.96,-336.96 194.4,-336.96 194.4,-266.4 264.96,-266.4 264.96,-336.96"/>
</g>
<!-- cb&#45;square&#45;3_2&#45;&#45;cb&#45;square&#45;4_2 -->
<!-- cb&#45;square&#45;3_2&#45;&#45;cb&#45;square&#45;3_3 -->
<!-- cb&#45;square&#45;2_2&#45;&#45;cb&#45;square&#45;2_3 -->
<!-- cb&#45;square&#45;2_2&#45;&#45;cb&#45;square&#45;3_2 -->
<!-- cb&#45;square&#45;0_0 -->
<g id="node73" class="node">
<title>cb&#45;square&#45;0_0</title>
<polygon fill="#faba8c" stroke="#faba8c" points="120.96,-120.96 50.4,-120.96 50.4,-50.4 120.96,-50.4 120.96,-120.96"/>
</g>
<!-- cb&#45;square&#45;0_0&#45;&#45;cb&#45;square&#45;0_1 -->
<!-- cb&#45;square&#45;0_0&#45;&#45;cb&#45;square&#45;1_0 -->
<!-- cb&#45;square&#45;4_5&#45;&#45;cb&#45;square&#45;4_6 -->
<!-- cb&#45;square&#45;4_5&#45;&#45;cb&#45;square&#45;5_5 -->
<!-- cb&#45;square&#45;11_6&#45;&#45;cb&#45;square&#45;12_6 -->
<!-- cb&#45;square&#45;9_2&#45;&#45;cb&#45;square&#45;9_3 -->
<!-- cb&#45;square&#45;5_0&#45;&#45;cb&#45;square&#45;5_1 -->
<!-- cb&#45;square&#45;5_0&#45;&#45;cb&#45;square&#45;6_0 -->
<!-- cb&#45;square&#45;2_5&#45;&#45;cb&#45;square&#45;2_6 -->
<!-- cb&#45;square&#45;2_5&#45;&#45;cb&#45;square&#45;3_5 -->
<!-- cb&#45;square&#45;9_0&#45;&#45;cb&#45;square&#45;9_1 -->
<!-- cb&#45;square&#45;3_1&#45;&#45;cb&#45;square&#45;4_1 -->
<!-- cb&#45;square&#45;3_1&#45;&#45;cb&#45;square&#45;3_2 -->
<!-- cb&#45;square&#45;3_3&#45;&#45;cb&#45;square&#45;3_4 -->
<!-- cb&#45;square&#45;3_3&#45;&#45;cb&#45;square&#45;4_3 -->
<!-- cb&#45;square&#45;9_5&#45;&#45;cb&#45;square&#45;9_6 -->
<!-- cb&#45;square&#45;12_4&#45;&#45;cb&#45;square&#45;12_5 -->
<!-- cb&#45;square&#45;0_2&#45;&#45;cb&#45;square&#45;1_2 -->
<!-- cb&#45;square&#45;0_2&#45;&#45;cb&#45;square&#45;0_3 -->
<!-- cb&#45;square&#45;11_1&#45;&#45;cb&#45;square&#45;11_2 -->
<!-- cb&#45;square&#45;11_1&#45;&#45;cb&#45;square&#45;12_1 -->
<!-- cb&#45;square&#45;4_4&#45;&#45;cb&#45;square&#45;5_4 -->
<!-- cb&#45;square&#45;4_4&#45;&#45;cb&#45;square&#45;4_5 -->
<!-- cb&#45;square&#45;0_6&#45;&#45;cb&#45;square&#45;1_6 -->
<!-- cb&#45;square&#45;11_4&#45;&#45;cb&#45;square&#45;11_5 -->
<!-- cb&#45;square&#45;11_4&#45;&#45;cb&#45;square&#45;12_4 -->
<!-- cb&#45;square&#45;8_0&#45;&#45;cb&#45;square&#45;8_1 -->
<!-- cb&#45;square&#45;8_0&#45;&#45;cb&#45;square&#45;9_0 -->
<!-- cb&#45;square&#45;8_5&#45;&#45;cb&#45;square&#45;8_6 -->
<!-- cb&#45;square&#45;8_5&#45;&#45;cb&#45;square&#45;9_5 -->
<!-- cb&#45;square&#45;2_1&#45;&#45;cb&#45;square&#45;2_2 -->
<!-- cb&#45;square&#45;2_1&#45;&#45;cb&#45;square&#45;3_1 -->
<!-- cb&#45;col&#45;tick&#45;29 -->
<g id="node92" class="node">
<title>cb&#45;col&#45;tick&#45;29</title>
<polygon fill="none" stroke="none" points="70.56,-408.96 0,-408.96 0,-338.4 70.56,-338.4 70.56,-408.96"/>
<text xml:space="preserve" text-anchor="middle" x="35.28" y="-365.93" font-family="Times,serif" font-size="20.00" fill="Ivory">29</text>
</g>
<!-- cb&#45;col&#45;tick&#45;30 -->
<g id="node100" class="node">
<title>cb&#45;col&#45;tick&#45;30</title>
<polygon fill="none" stroke="none" points="70.56,-336.96 0,-336.96 0,-266.4 70.56,-266.4 70.56,-336.96"/>
<text xml:space="preserve" text-anchor="middle" x="35.28" y="-293.93" font-family="Times,serif" font-size="20.00" fill="Ivory">30</text>
</g>
<!-- cb&#45;col&#45;tick&#45;29&#45;&#45;cb&#45;col&#45;tick&#45;30 -->
<!-- cb&#45;col&#45;tick&#45;25 -->
<g id="node93" class="node">
<title>cb&#45;col&#45;tick&#45;25</title>
<polygon fill="none" stroke="none" points="70.56,-696.96 0,-696.96 0,-626.4 70.56,-626.4 70.56,-696.96"/>
<text xml:space="preserve" text-anchor="middle" x="35.28" y="-653.93" font-family="Times,serif" font-size="20.00" fill="Ivory">25</text>
</g>
<!-- cb&#45;col&#45;tick&#45;26 -->
<g id="node109" class="node">
<title>cb&#45;col&#45;tick&#45;26</title>
<polygon fill="none" stroke="none" points="70.56,-624.96 0,-624.96 0,-554.4 70.56,-554.4 70.56,-624.96"/>
<text xml:space="preserve" text-anchor="middle" x="35.28" y="-581.93" font-family="Times,serif" font-size="20.00" fill="Ivory">26</text>
</g>
<!-- cb&#45;col&#45;tick&#45;25&#45;&#45;cb&#45;col&#45;tick&#45;26 -->
<!-- cb&#45;col&#45;tick&#45;22 -->
<g id="node94" class="node">
<title>cb&#45;col&#45;tick&#45;22</title>
<polygon fill="none" stroke="none" points="70.56,-912.96 0,-912.96 0,-842.4 70.56,-842.4 70.56,-912.96"/>
<text xml:space="preserve" text-anchor="middle" x="35.28" y="-869.93" font-family="Times,serif" font-size="20.00" fill="Ivory">22</text>
</g>
<!-- cb&#45;col&#45;tick&#45;23 -->
<g id="node95" class="node">
<title>cb&#45;col&#45;tick&#45;23</title>
<polygon fill="none" stroke="none" points="70.56,-840.96 0,-840.96 0,-770.4 70.56,-770.4 70.56,-840.96"/>
<text xml:space="preserve" text-anchor="middle" x="35.28" y="-797.93" font-family="Times,serif" font-size="20.00" fill="Ivory">23</text>
</g>
<!-- cb&#45;col&#45;tick&#45;22&#45;&#45;cb&#45;col&#45;tick&#45;23 -->
<!-- cb&#45;col&#45;tick&#45;24 -->
<g id="node103" class="node">
<title>cb&#45;col&#45;tick&#45;24</title>
<polygon fill="none" stroke="none" points="70.56,-768.96 0,-768.96 0,-698.4 70.56,-698.4 70.56,-768.96"/>
<text xml:space="preserve" text-anchor="middle" x="35.28" y="-725.93" font-family="Times,serif" font-size="20.00" fill="Ivory">24</text>
</g>
<!-- cb&#45;col&#45;tick&#45;23&#45;&#45;cb&#45;col&#45;tick&#45;24 -->
<!-- cb&#45;col&#45;tick&#45;33 -->
<g id="node96" class="node">
<title>cb&#45;col&#45;tick&#45;33</title>
<polygon fill="none" stroke="none" points="70.56,-120.96 0,-120.96 0,-50.4 70.56,-50.4 70.56,-120.96"/>
<text xml:space="preserve" text-anchor="middle" x="35.28" y="-77.93" font-family="Times,serif" font-size="20.00" fill="Ivory">33</text>
</g>
<!-- cb&#45;col&#45;tick&#45;21 -->
<g id="node97" class="node">
<title>cb&#45;col&#45;tick&#45;21</title>
<polygon fill="none" stroke="none" points="70.56,-984.96 0,-984.96 0,-914.4 70.56,-914.4 70.56,-984.96"/>
<text xml:space="preserve" text-anchor="middle" x="35.28" y="-941.93" font-family="Times,serif" font-size="20.00" fill="Ivory">21</text>
</g>
<!-- cb&#45;col&#45;tick&#45;21&#45;&#45;cb&#45;col&#45;tick&#45;22 -->
<!-- cb&#45;col&#45;tick&#45;27 -->
<g id="node98" class="node">
<title>cb&#45;col&#45;tick&#45;27</title>
<polygon fill="none" stroke="none" points="70.56,-552.96 0,-552.96 0,-482.4 70.56,-482.4 70.56,-552.96"/>
<text xml:space="preserve" text-anchor="middle" x="35.28" y="-509.93" font-family="Times,serif" font-size="20.00" fill="Ivory">27</text>
</g>
<!-- cb&#45;col&#45;tick&#45;28 -->
<g id="node110" class="node">
<title>cb&#45;col&#45;tick&#45;28</title>
<polygon fill="none" stroke="none" points="70.56,-480.96 0,-480.96 0,-410.4 70.56,-410.4 70.56,-480.96"/>
<text xml:space="preserve" text-anchor="middle" x="35.28" y="-437.93" font-family="Times,serif" font-size="20.00" fill="Ivory">28</text>
</g>
<!-- cb&#45;col&#45;tick&#45;27&#45;&#45;cb&#45;col&#45;tick&#45;28 -->
<!-- cb&#45;col&#45;tick&#45;31 -->
<g id="node99" class="node">
<title>cb&#45;col&#45;tick&#45;31</title>
<polygon fill="none" stroke="none" points="70.56,-264.96 0,-264.96 0,-194.4 70.56,-194.4 70.56,-264.96"/>
<text xml:space="preserve" text-anchor="middle" x="35.28" y="-221.93" font-family="Times,serif" font-size="20.00" fill="Ivory">31</text>
</g>
<!-- cb&#45;col&#45;tick&#45;32 -->
<g id="node105" class="node">
<title>cb&#45;col&#45;tick&#45;32</title>
<polygon fill="none" stroke="none" points="70.56,-192.96 0,-192.96 0,-122.4 70.56,-122.4 70.56,-192.96"/>
<text xml:space="preserve" text-anchor="middle" x="35.28" y="-149.93" font-family="Times,serif" font-size="20.00" fill="Ivory">32</text>
</g>
<!-- cb&#45;col&#45;tick&#45;31&#45;&#45;cb&#45;col&#45;tick&#45;32 -->
<!-- cb&#45;col&#45;tick&#45;30&#45;&#45;cb&#45;col&#45;tick&#45;31 -->
<!-- cb&#45;row&#45;tick&#45;6 -->
<g id="node101" class="node">
<title>cb&#45;row&#45;tick&#45;6</title>
<polygon fill="none" stroke="none" points="120.96,-70.56 50.4,-70.56 50.4,0 120.96,0 120.96,-70.56"/>
<text xml:space="preserve" text-anchor="middle" x="85.68" y="-27.53" font-family="Times,serif" font-size="20.00" fill="Ivory">6</text>
</g>
<!-- cb&#45;row&#45;tick&#45;1 -->
<g id="node102" class="node">
<title>cb&#45;row&#45;tick&#45;1</title>
<polygon fill="none" stroke="none" points="480.96,-70.56 410.4,-70.56 410.4,0 480.96,0 480.96,-70.56"/>
<text xml:space="preserve" text-anchor="middle" x="445.68" y="-27.53" font-family="Times,serif" font-size="20.00" fill="Ivory">1</text>
</g>
<!-- cb&#45;row&#45;tick&#45;2 -->
<g id="node111" class="node">
<title>cb&#45;row&#45;tick&#45;2</title>
<polygon fill="none" stroke="none" points="408.96,-70.56 338.4,-70.56 338.4,0 408.96,0 408.96,-70.56"/>
<text xml:space="preserve" text-anchor="middle" x="373.68" y="-27.53" font-family="Times,serif" font-size="20.00" fill="Ivory">2</text>
</g>
<!-- cb&#45;row&#45;tick&#45;1&#45;&#45;cb&#45;row&#45;tick&#45;2 -->
<!-- cb&#45;col&#45;tick&#45;24&#45;&#45;cb&#45;col&#45;tick&#45;25 -->
<!-- cb&#45;row&#45;tick&#45;3 -->
<g id="node104" class="node">
<title>cb&#45;row&#45;tick&#45;3</title>
<polygon fill="none" stroke="none" points="336.96,-70.56 266.4,-70.56 266.4,0 336.96,0 336.96,-70.56"/>
<text xml:space="preserve" text-anchor="middle" x="301.68" y="-27.53" font-family="Times,serif" font-size="20.00" fill="Ivory">3</text>
</g>
<!-- cb&#45;row&#45;tick&#45;4 -->
<g id="node108" class="node">
<title>cb&#45;row&#45;tick&#45;4</title>
<polygon fill="none" stroke="none" points="264.96,-70.56 194.4,-70.56 194.4,0 264.96,0 264.96,-70.56"/>
<text xml:space="preserve" text-anchor="middle" x="229.68" y="-27.53" font-family="Times,serif" font-size="20.00" fill="Ivory">4</text>
</g>
<!-- cb&#45;row&#45;tick&#45;3&#45;&#45;cb&#45;row&#45;tick&#45;4 -->
<!-- cb&#45;col&#45;tick&#45;32&#45;&#45;cb&#45;col&#45;tick&#45;33 -->
<!-- cb&#45;row&#45;tick&#45;5 -->
<g id="node106" class="node">
<title>cb&#45;row&#45;tick&#45;5</title>
<polygon fill="none" stroke="none" points="192.96,-70.56 122.4,-70.56 122.4,0 192.96,0 192.96,-70.56"/>
<text xml:space="preserve" text-anchor="middle" x="157.68" y="-27.53" font-family="Times,serif" font-size="20.00" fill="Ivory">5</text>
</g>
<!-- cb&#45;row&#45;tick&#45;5&#45;&#45;cb&#45;row&#45;tick&#45;6 -->
<!-- cb&#45;row&#45;tick&#45;0 -->
<g id="node107" class="node">
<title>cb&#45;row&#45;tick&#45;0</title>
<polygon fill="none" stroke="none" points="552.96,-70.56 482.4,-70.56 482.4,0 552.96,0 552.96,-70.56"/>
<text xml:space="preserve" text-anchor="middle" x="517.68" y="-27.53" font-family="Times,serif" font-size="20.00" fill="Ivory">0</text>
</g>
<!-- cb&#45;row&#45;tick&#45;0&#45;&#45;cb&#45;row&#45;tick&#45;1 -->
<!-- cb&#45;row&#45;tick&#45;4&#45;&#45;cb&#45;row&#45;tick&#45;5 -->
<!-- cb&#45;col&#45;tick&#45;26&#45;&#45;cb&#45;col&#45;tick&#45;27 -->
<!-- cb&#45;col&#45;tick&#45;28&#45;&#45;cb&#45;col&#45;tick&#45;29 -->
<!-- cb&#45;row&#45;tick&#45;2&#45;&#45;cb&#45;row&#45;tick&#45;3 -->
</g>
</svg>
